<svg id="Layer_1" data-name="Layer 1" xmlns="http://www.w3.org/2000/svg" viewBox="0 0 30.2 26.84"><defs><style>.cls-1{fill:#fff;}</style></defs><title>Untitled-2</title><g id="logo"><path class="cls-1" d="M1642.42,577.13a8,8,0,0,0-3.33-3.78,9.14,9.14,0,0,0-4.73-1.33,9,9,0,0,0-4.61,1.28,8.46,8.46,0,0,0-3.16,3.34,9.06,9.06,0,0,0-1,4.22v15.33H1628V580.86a6.67,6.67,0,0,1,.73-3.11,6.08,6.08,0,0,1,2.28-2.41,6.52,6.52,0,0,1,3.39-.94,6.87,6.87,0,0,1,3.51,1,5.77,5.77,0,0,1,2.37,2.69,6.31,6.31,0,0,1,.22,4.11,7.89,7.89,0,0,1-.85,2,6.26,6.26,0,0,1-5.36,2.95h-2v-.95h2a5.29,5.29,0,0,0,4.55-2.5,6.85,6.85,0,0,0,.74-1.78,5.37,5.37,0,0,0-.17-3.49,4.74,4.74,0,0,0-2-2.24,5.81,5.81,0,0,0-3-.85,5.66,5.66,0,0,0-2.9.8,5.25,5.25,0,0,0-1.93,2,5.71,5.71,0,0,0-.62,2.67v15.33h2.37V580.86a3.48,3.48,0,0,1,.34-1.56,2.78,2.78,0,0,1,1.07-1.11,3.25,3.25,0,0,1,1.67-.46,3.48,3.48,0,0,1,1.79.5,2.38,2.38,0,0,1,1,1.15,3,3,0,0,1,.07,1.93,4.68,4.68,0,0,1-.48,1.17,2.93,2.93,0,0,1-2.52,1.36h-2v5.7h2a8.64,8.64,0,0,0,7.39-4.11,10,10,0,0,0,1.11-2.63A8.63,8.63,0,0,0,1642.42,577.13Z" transform="translate(-1612.87 -569.35)"/><path class="cls-1" d="M1615.25,580.83V569.35h-2.38v11.48a8.65,8.65,0,0,0,6.83,8.47,9.25,9.25,0,0,0,2.12.24h2.57v-2.38h-2.57A6.38,6.38,0,0,1,1615.25,580.83Z" transform="translate(-1612.87 -569.35)"/><path class="cls-1" d="M1625.89,575.47h-9.69v5.36a5.42,5.42,0,0,0,5.62,5.38h2.57v-2.37h-2.57a3.07,3.07,0,0,1-3.25-3v-3h6.25a10.37,10.37,0,0,1,.72-1.75c.09-.17.18-.34.28-.5Z" transform="translate(-1612.87 -569.35)"/><path class="cls-1" d="M1626.6,574.48h0a9.52,9.52,0,0,1,2.53-2.19l.26-.15h-10.82v-2.79h-2.37v5.17h10.37Z" transform="translate(-1612.87 -569.35)"/><path class="cls-1" d="M1622.73,579.33a1.33,1.33,0,0,1-1.4,0,1.3,1.3,0,0,0-1.3,1.18h-1v.24h1a1.31,1.31,0,0,0,1.3,1.19,1.33,1.33,0,0,1,1.4,0,1.31,1.31,0,0,0,1.3-1.19h1v-.24h-1A1.3,1.3,0,0,0,1622.73,579.33Zm-1.4,2.37a1.07,1.07,0,1,1,.5-2,1.3,1.3,0,0,0-.41.94,1.32,1.32,0,0,0,.41,1A1.06,1.06,0,0,1,1621.33,581.7Zm.33-1.07a1,1,0,0,1,.37-.8,1.07,1.07,0,0,1,.37.8,1.1,1.1,0,0,1-.37.81A1.07,1.07,0,0,1,1621.66,580.63Zm1.07,1.07a1.06,1.06,0,0,1-.5-.12,1.32,1.32,0,0,0,.41-1,1.3,1.3,0,0,0-.41-.94,1.07,1.07,0,1,1,.5,2Z" transform="translate(-1612.87 -569.35)"/></g></svg>